<?xml version="1.0" encoding="UTF-8"?>
<svg xmlns="http://www.w3.org/2000/svg" xmlns:xlink="http://www.w3.org/1999/xlink" width="36px" height="32px" viewBox="0 0 36 32" version="1.1">
<g id="surface1">
<path style=" stroke:none;fill-rule:nonzero;fill:rgb(0%,0%,0%);fill-opacity:1;" d="M 17.476562 0.0703125 C 16.90625 0.214844 16.441406 0.578125 16.054688 1.167969 C 15.855469 1.472656 13.675781 5.339844 9.054688 13.59375 C 7.046875 17.183594 5.753906 19.496094 2.742188 24.871094 C 1.367188 27.324219 0.207031 29.421875 0.167969 29.53125 C 0.125 29.640625 0.0703125 29.847656 0.0429688 29.992188 C -0.0078125 30.25 -0.0078125 30.253906 0.0507812 30.527344 C 0.136719 30.917969 0.253906 31.136719 0.507812 31.394531 C 0.753906 31.648438 0.96875 31.777344 1.355469 31.902344 L 1.628906 31.988281 L 34.386719 31.988281 L 34.648438 31.929688 C 35.355469 31.777344 35.773438 31.375 35.945312 30.695312 C 36.015625 30.410156 36.015625 30.34375 35.945312 30.039062 C 35.828125 29.542969 36.144531 30.121094 31.726562 22.328125 C 29.667969 18.703125 26.996094 13.996094 23.21875 7.328125 C 21.398438 4.121094 19.824219 1.363281 19.722656 1.207031 C 19.402344 0.722656 18.960938 0.328125 18.5625 0.171875 C 18.367188 0.0898438 17.964844 0 17.835938 0.00390625 C 17.78125 0.00390625 17.617188 0.0351562 17.476562 0.0703125 Z M 19.136719 4.714844 C 19.804688 5.894531 21.527344 8.933594 22.964844 11.464844 C 27.328125 19.15625 32.21875 27.78125 32.890625 28.96875 C 33.085938 29.316406 33.242188 29.613281 33.230469 29.628906 C 33.21875 29.652344 28.257812 29.660156 17.953125 29.660156 C 4.101562 29.660156 2.699219 29.65625 2.699219 29.613281 C 2.699219 29.589844 3.027344 28.984375 3.429688 28.273438 C 4.195312 26.902344 6.199219 23.328125 9.984375 16.5625 C 13.425781 10.410156 13.644531 10.023438 14.980469 7.640625 C 17.511719 3.136719 17.84375 2.554688 17.882812 2.5625 C 17.902344 2.566406 18.46875 3.535156 19.136719 4.714844 Z M 19.136719 4.714844 "/>
<path style=" stroke:none;fill-rule:nonzero;fill:rgb(0%,0%,0%);fill-opacity:1;" d="M 17.523438 9.683594 C 17.039062 9.789062 16.582031 10.039062 16.203125 10.410156 C 15.945312 10.660156 15.78125 10.890625 15.636719 11.203125 C 15.414062 11.683594 15.394531 11.972656 15.523438 12.957031 C 15.570312 13.308594 15.722656 14.472656 15.863281 15.554688 C 16.003906 16.628906 16.179688 17.996094 16.257812 18.578125 C 16.332031 19.164062 16.457031 20.136719 16.539062 20.738281 C 16.6875 21.921875 16.742188 22.164062 16.917969 22.457031 C 17.0625 22.703125 17.226562 22.859375 17.460938 22.976562 C 17.644531 23.066406 17.699219 23.082031 17.929688 23.089844 C 18.496094 23.117188 18.902344 22.859375 19.15625 22.316406 C 19.285156 22.03125 19.324219 21.847656 19.445312 20.894531 C 19.585938 19.816406 20.007812 16.578125 20.308594 14.265625 C 20.472656 13.023438 20.5625 12.222656 20.5625 12.058594 C 20.5625 11.453125 20.289062 10.882812 19.761719 10.378906 C 19.128906 9.777344 18.304688 9.519531 17.523438 9.683594 Z M 17.523438 9.683594 "/>
<path style=" stroke:none;fill-rule:nonzero;fill:rgb(0%,0%,0%);fill-opacity:1;" d="M 17.773438 24.230469 C 17.101562 24.324219 16.539062 24.8125 16.324219 25.496094 C 16.230469 25.785156 16.21875 26.246094 16.296875 26.53125 C 16.699219 28.046875 18.601562 28.390625 19.453125 27.097656 C 19.890625 26.433594 19.863281 25.558594 19.382812 24.914062 C 19.011719 24.421875 18.375 24.152344 17.773438 24.230469 Z M 17.773438 24.230469 "/>
</g>
</svg>
